<svg width="375" height="134" viewBox="0 0 375 134" fill="none" xmlns="http://www.w3.org/2000/svg">
<g clip-path="url(#clip0_803_115)">
<rect width="375" height="133.167" fill="#FFB600"/>
<path d="M99.8751 37.6854C102.45 37.6854 104.847 37.9962 107.066 38.6176C109.286 39.239 111.194 40.2156 112.792 41.5473C114.479 42.8789 115.811 44.6101 116.787 46.7408C117.764 48.8714 118.252 51.4904 118.252 54.5976C118.252 57.4385 117.853 60.0575 117.054 62.4545C116.255 64.7627 115.189 67.0709 113.858 69.3791C112.526 71.5986 111.017 73.9068 109.33 76.3038C107.643 78.7008 105.912 81.3198 104.136 84.1606C102.45 87.0015 100.807 90.1975 99.2093 93.7487C97.6113 97.2998 96.1908 101.384 94.9479 106H64.0532L57.6612 82.6958L51.5356 106H20.9072L10.9197 69.6455C8.61145 61.034 6.61395 54.3757 4.92717 49.6704C3.24039 44.9652 1.598 41.858 0 40.3488V39.4166H41.9475V40.3488C41.1485 41.1478 40.5715 42.2575 40.2164 43.6779C39.95 45.0984 39.8613 46.9627 39.95 49.2709C40.1276 51.5792 40.4827 54.4201 41.0154 57.7936C41.6368 61.1672 42.4802 65.1178 43.5455 69.6455L49.8044 96.1457H50.4702C51.358 92.0619 52.0238 88.3776 52.4677 85.0928C53.0004 81.808 53.2667 78.612 53.2667 75.5048C53.2667 72.3976 53.0004 69.246 52.4677 66.05C52.0238 62.7652 51.2692 59.2141 50.2039 55.3966C49.2273 52.0231 48.2064 49.049 47.141 46.4744C46.0757 43.8999 44.744 41.858 43.146 40.3488V39.4166H68.3146C75.4168 39.4166 81.6756 39.1503 87.0911 38.6176C92.5065 37.9962 96.7679 37.6854 99.8751 37.6854ZM93.7494 99.8743H94.4153C94.5928 98.5427 94.726 96.8559 94.8148 94.814C94.9923 92.7721 95.1255 90.597 95.2143 88.2888C95.303 85.9806 95.3918 83.628 95.4806 81.231C95.5694 78.834 95.6138 76.5701 95.6138 74.4395C95.6138 70.0006 95.4362 65.828 95.0811 61.9218C94.726 58.0156 94.1933 54.5976 93.4831 51.6679C92.7729 48.7383 91.7963 46.4301 90.5534 44.7433C89.3993 42.9677 88.0233 42.0799 86.4253 42.0799C85.3599 42.0799 84.5165 42.5682 83.8951 43.5448C83.3624 44.4325 83.0961 45.9862 83.0961 48.2056C83.0961 50.3363 83.4068 53.1772 84.0283 56.7283C84.6497 60.1906 85.5375 64.4963 86.6916 69.6455L93.7494 99.8743ZM192.899 83.8943C193.521 86.4689 194.098 88.5995 194.631 90.2863C195.163 91.8843 195.74 93.3048 196.362 94.5477C197.072 95.7018 197.915 96.7671 198.892 97.7437C199.957 98.6314 201.245 99.608 202.754 100.673V101.605C201.422 102.76 199.78 103.781 197.827 104.668C196.051 105.467 193.876 106.178 191.301 106.799C188.816 107.42 185.842 107.731 182.379 107.731C179.45 107.731 176.964 107.42 174.922 106.799C172.88 106.178 171.149 105.157 169.728 103.736C168.308 102.227 167.198 100.274 166.399 97.8768C165.6 95.391 164.979 92.3726 164.535 88.8215C164.18 85.8918 163.78 83.4504 163.336 81.4973C162.892 79.5442 162.449 77.9462 162.005 76.7033C161.561 75.4604 161.117 74.4839 160.673 73.7736C160.229 72.9746 159.83 72.3088 159.475 71.7761L159.075 71.9093V75.7711C159.075 84.3826 159.253 91.0409 159.608 95.7462C160.052 100.451 161.073 103.559 162.671 105.068V106H121.655V105.068C123.253 103.559 124.23 100.496 124.585 95.8793C125.029 91.1741 125.251 84.5601 125.251 76.0375V45.0096C125.251 36.3982 125.029 29.7398 124.585 25.0346C124.23 20.3294 123.253 17.2221 121.655 15.7129V14.7807C128.491 14.7807 135.061 14.6032 141.364 14.2481C147.667 13.8042 153.26 12.7832 158.143 11.1852H159.075V65.6505L159.475 65.7836C159.741 65.3397 160.007 64.8958 160.274 64.452C160.629 64.0081 161.028 63.5642 161.472 63.1203C163.869 60.2794 165.645 57.3497 166.799 54.3313C167.953 51.3128 169.107 48.5607 170.261 46.0749C171.415 43.5892 172.88 41.5917 174.656 40.0824C176.52 38.4844 179.316 37.6854 183.045 37.6854C187.129 37.6854 190.236 38.8839 192.367 41.2809C194.586 43.6779 195.696 47.0071 195.696 51.2684C195.696 54.1093 195.474 56.5507 195.03 58.5926C194.586 60.5457 194.142 61.8774 193.698 62.5876H192.766C191.257 62.1437 189.526 61.8774 187.573 61.7886C185.62 61.6998 183.533 61.6555 181.314 61.6555C179.627 61.6555 177.63 61.8774 175.321 62.3213C173.102 62.6764 170.971 63.2091 168.929 63.9193C166.976 64.5407 165.289 65.2953 163.869 66.1831C162.449 66.9821 161.738 67.8255 161.738 68.7133C161.738 69.1572 162.093 69.3791 162.804 69.3791C164.047 69.3791 165.689 69.1572 167.731 68.7133C169.773 68.2694 172.17 68.0475 174.922 68.0475C178.295 68.0475 181.003 68.4026 183.045 69.1128C185.087 69.823 186.729 70.844 187.972 72.1756C189.215 73.5073 190.192 75.1497 190.902 77.1028C191.612 79.0559 192.278 81.3198 192.899 83.8943ZM246.984 105.068C248.582 103.559 249.558 100.496 249.914 95.8793C250.357 91.1741 250.579 84.5601 250.579 76.0375V72.7083C250.579 56.8171 248.981 48.8714 245.785 48.8714C244.986 48.8714 244.321 49.3597 243.788 50.3363C243.255 51.3128 242.811 52.6001 242.456 54.1981C242.101 55.7073 241.835 57.4829 241.657 59.5248C241.568 61.4779 241.524 63.4754 241.524 65.5173V75.7711C241.524 84.3826 241.702 91.0409 242.057 95.7462C242.501 100.451 243.522 103.559 245.12 105.068V106H204.104V105.068C205.702 103.559 206.679 100.496 207.034 95.8793C207.478 91.2629 207.7 84.6489 207.7 76.0375V71.3766C207.7 62.7652 207.478 56.1068 207.034 51.4016C206.679 46.6964 205.702 43.5892 204.104 42.0799V41.1478C210.674 41.1478 216.844 40.9702 222.614 40.6151C228.474 40.1712 233.667 39.1947 238.195 37.6854H239.127L240.459 48.2056H241.125C243.166 44.9208 245.83 42.3463 249.115 40.4819C252.399 38.6176 256.705 37.6854 262.032 37.6854C269.223 37.6854 274.727 39.5942 278.544 43.4116C282.451 47.2291 284.404 53.3991 284.404 61.9218V75.7711C284.404 84.3826 284.581 91.0409 284.936 95.7462C285.38 100.451 286.401 103.559 287.999 105.068V106H246.984V105.068ZM368.97 76.0375C368.97 84.6489 369.147 91.2629 369.502 95.8793C369.946 100.496 370.923 103.559 372.432 105.068V106H337.542L336.344 97.3442H335.678C333.814 100.54 331.372 103.07 328.354 104.935C325.335 106.799 321.385 107.731 316.502 107.731C307.891 107.731 301.632 104.801 297.726 98.9422C293.819 92.994 291.866 84.6933 291.866 74.04C291.866 69.1572 292.266 64.5407 293.065 60.1906C293.953 55.7517 295.373 51.8899 297.326 48.6051C299.368 45.2316 301.987 42.5682 305.183 40.6151C308.468 38.662 312.507 37.6854 317.301 37.6854C325.114 37.6854 331.017 40.4375 335.012 45.9418H335.678V45.0096C335.678 36.3982 335.367 29.7398 334.746 25.0346C334.213 20.3294 333.148 17.2221 331.55 15.7129V14.7807C338.297 14.7807 344.822 14.6032 351.125 14.2481C357.429 13.8042 363.066 12.7832 368.038 11.1852H368.97V76.0375ZM331.284 94.6808C332.083 94.6808 332.704 94.2813 333.148 93.4823C333.681 92.6833 334.08 91.618 334.346 90.2863C334.613 88.9546 334.79 87.401 334.879 85.6255C334.968 83.8499 335.012 81.9412 335.012 79.8993V65.5173C335.012 63.4754 334.923 61.4779 334.746 59.5248C334.657 57.4829 334.435 55.7073 334.08 54.1981C333.814 52.6001 333.414 51.3128 332.882 50.3363C332.438 49.3597 331.861 48.8714 331.15 48.8714C329.908 48.8714 328.842 50.8689 327.954 54.864C327.067 58.7702 326.623 64.8958 326.623 73.241C326.623 77.3247 326.712 80.7427 326.889 83.4948C327.155 86.2469 327.466 88.4664 327.821 90.1532C328.265 91.7512 328.753 92.9053 329.286 93.6155C329.908 94.3257 330.573 94.6808 331.284 94.6808Z" fill="#222423"/>
<path d="M340.808 127.648C340.207 127.648 339.738 127.48 339.402 127.145C339.084 126.791 338.925 126.331 338.925 125.766C338.925 125.182 339.084 124.723 339.402 124.387C339.738 124.051 340.207 123.883 340.808 123.883C341.426 123.883 341.895 124.051 342.213 124.387C342.549 124.723 342.717 125.182 342.717 125.766C342.717 126.331 342.549 126.791 342.213 127.145C341.895 127.48 341.426 127.648 340.808 127.648ZM351.033 127.993C349.955 127.993 348.992 127.834 348.143 127.516C347.294 127.18 346.57 126.711 345.969 126.11C345.367 125.492 344.908 124.749 344.59 123.883C344.271 122.999 344.112 122.009 344.112 120.913C344.112 119.852 344.263 118.897 344.563 118.049C344.864 117.2 345.306 116.484 345.889 115.901C346.472 115.3 347.18 114.84 348.01 114.522C348.859 114.204 349.823 114.045 350.901 114.045C351.803 114.045 352.651 114.124 353.447 114.283C354.242 114.425 354.949 114.495 355.568 114.495C356.028 114.495 356.408 114.407 356.708 114.23H356.894C356.965 114.372 357.035 114.69 357.106 115.185C357.195 115.662 357.239 116.352 357.239 117.253C357.239 117.766 357.212 118.288 357.159 118.818C357.106 119.348 356.991 119.826 356.814 120.25C356.655 120.674 356.417 121.019 356.098 121.284C355.78 121.549 355.356 121.682 354.826 121.682C354.225 121.682 353.756 121.514 353.42 121.178C353.102 120.824 352.863 120.391 352.704 119.879C352.545 119.366 352.439 118.818 352.386 118.235C352.351 117.633 352.306 117.077 352.253 116.564C352.218 116.051 352.156 115.627 352.068 115.291C351.979 114.937 351.811 114.761 351.564 114.761C351.281 114.761 351.033 115.017 350.821 115.53C350.609 116.042 350.503 116.944 350.503 118.235C350.503 119.189 350.574 120.047 350.715 120.807C350.874 121.567 351.104 122.221 351.405 122.769C351.705 123.317 352.085 123.741 352.545 124.042C353.022 124.325 353.588 124.466 354.242 124.466C354.914 124.466 355.489 124.316 355.966 124.015C356.443 123.697 356.859 123.246 357.212 122.663L357.398 122.743C357.398 123.361 357.265 123.989 357 124.625C356.753 125.244 356.364 125.81 355.833 126.323C355.321 126.818 354.666 127.224 353.871 127.542C353.075 127.843 352.13 127.993 351.033 127.993ZM358.575 120.939C358.575 119.861 358.743 118.897 359.079 118.049C359.432 117.183 359.936 116.449 360.59 115.848C361.244 115.229 362.058 114.761 363.03 114.442C364.002 114.107 365.107 113.939 366.345 113.939C367.582 113.939 368.678 114.107 369.633 114.442C370.605 114.761 371.419 115.229 372.073 115.848C372.744 116.449 373.248 117.183 373.584 118.049C373.938 118.897 374.115 119.861 374.115 120.939C374.115 122 373.938 122.964 373.584 123.83C373.248 124.696 372.744 125.43 372.073 126.031C371.419 126.632 370.605 127.1 369.633 127.436C368.678 127.755 367.582 127.914 366.345 127.914C365.107 127.914 364.002 127.755 363.03 127.436C362.058 127.1 361.244 126.632 360.59 126.031C359.936 125.43 359.432 124.696 359.079 123.83C358.743 122.964 358.575 122 358.575 120.939ZM367.193 120.939C367.193 118.959 367.123 117.421 366.981 116.325C366.857 115.211 366.645 114.655 366.345 114.655C366.044 114.655 365.823 115.211 365.682 116.325C365.558 117.421 365.496 118.959 365.496 120.939C365.496 122.902 365.558 124.44 365.682 125.554C365.823 126.65 366.044 127.198 366.345 127.198C366.645 127.198 366.857 126.65 366.981 125.554C367.123 124.44 367.193 122.902 367.193 120.939Z" fill="#222423"/>
<path fill-rule="evenodd" clip-rule="evenodd" d="M26.776 127.979L26.761 127.963L25.7266 124.197H334C333.845 124.84 333.779 125.485 333.779 126.105C333.779 126.725 333.846 127.356 333.996 127.979H26.776Z" fill="#222423"/>
<rect x="17.0039" y="121.926" width="321.099" height="3.17064" fill="#FFB600"/>
<rect x="17.0039" y="127.114" width="321.099" height="3.17064" fill="#FFB600"/>
</g>
<defs>
<clipPath id="clip0_803_115">
<rect width="375" height="133.167" fill="white"/>
</clipPath>
</defs>
</svg>
